<svg xmlns="http://www.w3.org/2000/svg" viewBox="0 0 24 24">
  <defs>
    <radialGradient id="purpleWood" cx="50%" cy="50%" r="50%">
      <stop offset="0%" style="stop-color:#A831C2"/>
      <stop offset="100%" style="stop-color:#250a25"/>
    </radialGradient>
    <linearGradient id="metalBand" x1="0%" y1="0%" x2="100%" y2="0%">
      <stop offset="0%" style="stop-color:#250a25"/>
      <stop offset="50%" style="stop-color:#A831C2"/>
      <stop offset="100%" style="stop-color:#250a25"/>
    </linearGradient>
  </defs>
  
  <!-- Main barrel body with bulge -->
  <path d="M7,6 C7,5 17,5 17,6 L16.5,18 C16.5,19 7.5,19 7.5,18 L7,6" 
        fill="url(#purpleWood)" stroke="#250a25" stroke-width="0.5"/>
  
  <!-- Metal bands with purple tint -->
  <path d="M6.5,7 C6.5,7 12,8 17.5,7" stroke="url(#metalBand)" stroke-width="1.5" fill="none"/>
  <path d="M6.7,12 C6.7,12 12,13 17.3,12" stroke="url(#metalBand)" stroke-width="1.5" fill="none"/>
  <path d="M6.8,17 C6.8,17 12,18 17.2,17" stroke="url(#metalBand)" stroke-width="1.5" fill="none"/>
  
  <!-- Top and bottom rims -->
  <ellipse cx="12" cy="6" rx="5.2" ry="1" fill="#A831C2" stroke="#250a25" stroke-width="0.5"/>
  <ellipse cx="12" cy="18" rx="5" ry="1" fill="#250a25" stroke="#250a25" stroke-width="0.5"/>
  
  <!-- Wood grain details with purple tint -->
  <path d="M8,7 C8,11 8.2,17 8.2,17" stroke="#250a25" stroke-width="0.5" stroke-opacity="0.2"/>
  <path d="M10,7 C10,11 10.2,17 10.2,17" stroke="#250a25" stroke-width="0.5" stroke-opacity="0.2"/>
  <path d="M14,7 C14,11 14.2,17 14.2,17" stroke="#250a25" stroke-width="0.5" stroke-opacity="0.2"/>
  <path d="M16,7 C16,11 16.2,17 16.2,17" stroke="#250a25" stroke-width="0.5" stroke-opacity="0.2"/>
</svg>
