<?xml version="1.0" encoding="UTF-8"?>
<!DOCTYPE svg PUBLIC "-//W3C//DTD SVG 1.1//EN" "http://www.w3.org/Graphics/SVG/1.1/DTD/svg11.dtd">
<svg xmlns="http://www.w3.org/2000/svg" viewBox="0 0 24 24" fill="none" stroke="currentColor" stroke-width="1.5">
  <path d="M5,6V16C5,18 6.5,19 8,19H14C15.5,19 17,18 17,16V6" stroke="currentColor" fill="rgba(245, 158, 11, 0.3)" />
  <path d="M17,6H5C5,4 6.5,3 8,3H14C15.5,3 17,4 17,6Z" stroke="currentColor" fill="white" />
  <path d="M17,6V3C19,3 20,4.5 20,6V8C20,9.5 19,11 17,11" stroke="currentColor" />
  <path d="M7,8.5C9,8 11,10 13,9.5C15,9 16,8 16,8" stroke="currentColor" stroke-linecap="round" />
  <path d="M7,12.5H15" stroke="currentColor" stroke-linecap="round" />
  <path d="M7,15.5H15" stroke="currentColor" stroke-linecap="round" />
</svg>
